<svg xmlns="http://www.w3.org/2000/svg" xmlns:xlink="http://www.w3.org/1999/xlink" viewBox="0 0 613 637"><defs><style>.a{clip-path:url(#b);}.b,.i{fill:#fff;}.b,.d{stroke:#263238;}.c,.e{fill:#263238;}.c{font-size:14px;font-family:MicrosoftYaHeiUI-Bold, Microsoft YaHei UI;font-weight:700;}.c,.e,.f{letter-spacing:0.012em;}.d,.h{fill:none;}.e{font-size:8px;}.e,.f{font-family:MicrosoftYaHeiUI, Microsoft YaHei UI;}.f{fill:#7f8389;font-size:6px;}.g{stroke:none;}</style><clipPath id="b"><rect width="613" height="637"/></clipPath></defs><g id="a" class="a"><rect class="i" width="613" height="637"/><g transform="translate(-268 26)"><g class="b" transform="translate(442 178)"><rect class="g" width="179" height="44" rx="3"/><rect class="h" x="0.5" y="0.5" width="178" height="43" rx="2.5"/></g><text class="c" transform="translate(532 205)"><tspan x="-57.491" y="0">热爱vue的小菜鸟 </tspan></text></g><g transform="translate(-371 26)"><g class="b" transform="translate(392 178)"><rect class="g" width="129" height="44" rx="3"/><rect class="h" x="0.5" y="0.5" width="128" height="43" rx="2.5"/></g><text class="c" transform="translate(457 205)"><tspan x="-14.084" y="0">小白</tspan></text></g><g transform="translate(-16 -154)"><g class="b" transform="translate(216 178)"><rect class="g" width="126" height="44" rx="3"/><rect class="h" x="0.5" y="0.5" width="125" height="43" rx="2.5"/></g><text class="c" transform="translate(279 205)"><tspan x="-28.252" y="0">喵与猫寻</tspan></text></g><path class="d" d="M2307,59s2.876,46.581-46.581,46.581" transform="translate(-2044 9)"/><path class="d" d="M2307,59s2.876,46.581-46.581,46.581" transform="translate(2395.451 220.081) rotate(180)"/><line class="d" y1="43" transform="translate(88.5 161)"/><line class="d" x1="83" transform="translate(133.5 114.5)"/><path class="d" d="M2307,59s2.876,46.581-46.581,46.581" transform="translate(369.016 -2192.435) rotate(90)"/><line class="d" x1="113" transform="translate(307.5 114.5)"/><path class="d" d="M2308.9,59s2.993,46.581-48.483,46.581" transform="translate(359.9 2423.419) rotate(-90)"/><line class="d" y1="41.5" transform="translate(465.5 163)"/><line class="d" x2="0.3" y2="136" transform="translate(263.2 68.5)"/><text class="e" transform="translate(187 217)"><tspan x="-8.048" y="0">主页</tspan></text><g transform="translate(133 10)"><g class="b" transform="translate(241 195)"><rect class="g" width="141" height="44" rx="3"/><rect class="h" x="0.5" y="0.5" width="140" height="43" rx="2.5"/></g><text class="c" transform="translate(312 222)"><tspan x="-28.252" y="0">风雨帝侯</tspan></text><text class="e" transform="translate(248 208)"><tspan x="0" y="0">个人中心</tspan></text></g><text class="e" transform="translate(26 217)"><tspan x="0" y="0">铲屎官社区</tspan></text><line class="d" y2="323" transform="translate(87.5 246.5)"/><path class="d" d="M2118.5,267.251s-.465,22.061,22.061,22.061" transform="translate(-2031 122)"/><g transform="translate(-133 194)"><g class="b" transform="translate(241 195)"><rect class="g" width="120" height="44" rx="3"/><rect class="h" x="0.5" y="0.5" width="119" height="43" rx="2.5"/></g><text class="c" transform="translate(301 222)"><tspan x="-14.084" y="0">上栏</tspan></text><text class="e" transform="translate(248 208)"><tspan x="0" y="0">子组件B</tspan></text></g><path class="d" d="M2118.5,267.251s-.465,22.061,22.061,22.061" transform="translate(-2031 182)"/><g transform="translate(-133 254)"><g class="b" transform="translate(241 195)"><rect class="g" width="120" height="44" rx="3"/><rect class="h" x="0.5" y="0.5" width="119" height="43" rx="2.5"/></g><text class="c" transform="translate(301 222)"><tspan x="-14.084" y="0">帖子</tspan></text><text class="e" transform="translate(248 208)"><tspan x="0" y="0">子组件B</tspan></text></g><path class="d" d="M2118.5,267.251s-.465,22.061,22.061,22.061" transform="translate(-2031 242)"/><g transform="translate(-133 314)"><g class="b" transform="translate(241 195)"><rect class="g" width="121" height="44" rx="3"/><rect class="h" x="0.5" y="0.5" width="120" height="43" rx="2.5"/></g><text class="c" transform="translate(302 222)"><tspan x="-21.168" y="0">时间轴</tspan></text><text class="e" transform="translate(248 208)"><tspan x="0" y="0">父组件B</tspan></text></g><path class="d" d="M2118.5,267.251s-.465,22.061,22.061,22.061" transform="translate(-2031 302)"/><g transform="translate(-133 374)"><g class="b" transform="translate(241 195)"><rect class="g" width="121" height="44" rx="3"/><rect class="h" x="0.5" y="0.5" width="120" height="43" rx="2.5"/></g><text class="c" transform="translate(302 222)"><tspan x="-21.168" y="0">时间轴</tspan></text><text class="e" transform="translate(248 208)"><tspan x="0" y="0">页面B</tspan></text></g><path class="d" d="M2118.5,267.251s-.465,22.061,22.061,22.061" transform="translate(-2031 3)"/><g transform="translate(-133 75)"><g class="b" transform="translate(241 195)"><rect class="g" width="120" height="44" rx="3"/><rect class="h" x="0.5" y="0.5" width="119" height="43" rx="2.5"/></g><text class="c" transform="translate(301 222)"><tspan x="-14.084" y="0">卡片</tspan></text><text class="e" transform="translate(248 208)"><tspan x="0" y="0">子组件A</tspan></text></g><path class="d" d="M2118.5,267.251s-.465,22.061,22.061,22.061" transform="translate(-2031 63)"/><g transform="translate(-133 135)"><g class="b" transform="translate(241 195)"><rect class="g" width="120" height="44" rx="3"/><rect class="h" x="0.5" y="0.5" width="119" height="43" rx="2.5"/></g><text class="c" transform="translate(301 222)"><tspan x="-35.336" y="0">铲屎官社区</tspan></text><text class="e" transform="translate(248 208)"><tspan x="0" y="0">页面A</tspan></text></g><text class="f" transform="translate(166 369)"><tspan x="0" y="0">/pages/community</tspan></text><text class="f" transform="translate(167 310)"><tspan x="0" y="0">/components/card</tspan></text><text class="f" transform="translate(222 429)"><tspan x="-87.94" y="0">/components/timeline/topbar</tspan></text><text class="f" transform="translate(222 489)"><tspan x="-81.134" y="0">/components/timeline/post</tspan></text><text class="f" transform="translate(222 550)"><tspan x="-65.552" y="0">/components/timeline</tspan></text><text class="f" transform="translate(220 605)"><tspan x="-46.456" y="0">/pages/timeline</tspan></text><line class="d" y2="260" transform="translate(263.5 248.5)"/><g transform="translate(-231 9)"><path class="d" d="M2118.5,267.251s-.465,22.061,22.061,22.061" transform="translate(-1624 -4)"/><g class="b" transform="translate(515 263)"><rect class="g" width="120" height="44" rx="3"/><rect class="h" x="0.5" y="0.5" width="119" height="43" rx="2.5"/></g><text class="c" transform="translate(575 290)"><tspan x="-28.252" y="0">气泡卡片</tspan></text><text class="e" transform="translate(522 276)"><tspan x="0" y="0">子组件C</tspan></text><text class="f" transform="translate(632 302)"><tspan x="-82.086" y="0">/components/map/popover</tspan></text></g><g transform="translate(-231 68)"><path class="d" d="M2118.5,267.251s-.465,22.061,22.061,22.061" transform="translate(-1624 -4)"/><g class="b" transform="translate(515 263)"><rect class="g" width="120" height="44" rx="3"/><rect class="h" x="0.5" y="0.5" width="119" height="43" rx="2.5"/></g><text class="c" transform="translate(575 290)"><tspan x="-14.084" y="0">地图</tspan></text><text class="e" transform="translate(522 276)"><tspan x="0" y="0">父组件C</tspan></text><text class="f" transform="translate(632 302)"><tspan x="-54.809" y="0">/components/map</tspan></text></g><g transform="translate(-231 127)"><path class="d" d="M2118.5,267.251s-.465,22.061,22.061,22.061" transform="translate(-1624 -4)"/><g class="b" transform="translate(515 263)"><rect class="g" width="120" height="44" rx="3"/><rect class="h" x="0.5" y="0.5" width="119" height="43" rx="2.5"/></g><text class="c" transform="translate(575 290)"><tspan x="-14.084" y="0">主页</tspan></text><text class="e" transform="translate(522 276)"><tspan x="0" y="0">页面C</tspan></text><text class="f" transform="translate(632 302)"><tspan x="-39.55" y="0">/pages/home</tspan></text></g><g transform="translate(-231 186)"><path class="d" d="M2118.5,267.251s-.465,22.061,22.061,22.061" transform="translate(-1624 -4)"/><g class="b" transform="translate(515 263)"><rect class="g" width="120" height="44" rx="3"/><rect class="h" x="0.5" y="0.5" width="119" height="43" rx="2.5"/></g><text class="c" transform="translate(575 290)"><tspan x="-21.168" y="0">添加猫</tspan></text><text class="e" transform="translate(522 276)"><tspan x="0" y="0">页面D</tspan></text><text class="f" transform="translate(632 302)"><tspan x="-45.347" y="0">/pages/cat/add</tspan></text></g><g transform="translate(-231 245)"><path class="d" d="M2118.5,267.251s-.465,22.061,22.061,22.061" transform="translate(-1624 -4)"/><g transform="translate(1)"><g class="b" transform="translate(515 263)"><rect class="g" width="120" height="44" rx="3"/><rect class="h" x="0.5" y="0.5" width="119" height="43" rx="2.5"/></g><text class="c" transform="translate(575 290)"><tspan x="-21.168" y="0">猫信息</tspan></text><text class="e" transform="translate(522 276)"><tspan x="0" y="0">页面E</tspan></text><text class="f" transform="translate(632 302)"><tspan x="-47.315" y="0">/pages/cat/view</tspan></text></g></g><line class="d" y2="260" transform="translate(452.5 249.5)"/><g transform="translate(-42 69)"><path class="d" d="M2118.5,267.251s-.465,22.061,22.061,22.061" transform="translate(-1624 -4)"/><g class="b" transform="translate(515 263)"><rect class="g" width="120" height="44" rx="3"/><rect class="h" x="0.5" y="0.5" width="119" height="43" rx="2.5"/></g><text class="c" transform="translate(575 290)"><tspan x="-28.252" y="0">个人中心</tspan></text><text class="e" transform="translate(522 276)"><tspan x="0" y="0">页面F</tspan></text><text class="f" transform="translate(632 302)"><tspan x="-41.846" y="0">/pages/profile</tspan></text></g><g transform="translate(-42 128)"><path class="d" d="M2118.5,267.251s-.465,22.061,22.061,22.061" transform="translate(-1624 -4)"/><g class="b" transform="translate(515 263)"><rect class="g" width="120" height="44" rx="3"/><rect class="h" x="0.5" y="0.5" width="119" height="43" rx="2.5"/></g><text class="c" transform="translate(575 290)"><tspan x="-14.084" y="0">设置</tspan></text><text class="e" transform="translate(522 276)"><tspan x="0" y="0">页面G</tspan></text><text class="f" transform="translate(632 302)"><tspan x="-67.619" y="0">/pages/profile/settings</tspan></text></g><g transform="translate(-42 187)"><path class="d" d="M2118.5,267.251s-.465,22.061,22.061,22.061" transform="translate(-1624 -4)"/><g class="b" transform="translate(515 263)"><rect class="g" width="120" height="44" rx="3"/><rect class="h" x="0.5" y="0.5" width="119" height="43" rx="2.5"/></g><text class="c" transform="translate(575 290)"><tspan x="-28.252" y="0">消息通知</tspan></text><text class="e" transform="translate(522 276)"><tspan x="0" y="0">页面H</tspan></text><text class="f" transform="translate(632 302)"><tspan x="-80.884" y="0">/pages/profile/notifications</tspan></text></g><g transform="translate(-42 246)"><path class="d" d="M2118.5,267.251s-.465,22.061,22.061,22.061" transform="translate(-1624 -4)"/><g class="b" transform="translate(515 263)"><rect class="g" width="120" height="44" rx="3"/><rect class="h" x="0.5" y="0.5" width="119" height="43" rx="2.5"/></g><text class="c" transform="translate(575 290)"><tspan x="-14.084" y="0">须知</tspan></text><text class="e" transform="translate(522 276)"><tspan x="0" y="0">页面G</tspan></text><text class="f" transform="translate(632 302)"><tspan x="-65.52" y="0">/pages/profile/notices</tspan></text></g><g transform="translate(-42 10)"><path class="d" d="M2118.5,267.251s-.465,22.061,22.061,22.061" transform="translate(-1624 -4)"/><g class="b" transform="translate(515 263)"><rect class="g" width="120" height="44" rx="3"/><rect class="h" x="0.5" y="0.5" width="119" height="43" rx="2.5"/></g><text class="c" transform="translate(575 290)"><tspan x="-21.168" y="0">导航栏</tspan></text><text class="e" transform="translate(522 276)"><tspan x="0" y="0">组件D</tspan></text><text class="f" transform="translate(632 302)"><tspan x="-73.463" y="0">/components/bottombar</tspan></text></g></g></svg>