<svg xmlns="http://www.w3.org/2000/svg" xmlns:xlink="http://www.w3.org/1999/xlink" viewBox="0 0 923 950"><defs><style>.a{clip-path:url(#b);}.b,.l{fill:#fff;}.b,.d{stroke:#263238;}.c,.e,.f,.g{fill:#263238;}.c{font-size:21px;}.c,.g{font-family:MicrosoftYaHeiUI-Bold, Microsoft YaHei UI;font-weight:700;}.c,.e,.f,.g,.h,.i{letter-spacing:0.012em;}.d,.k{fill:none;}.e{font-size:12px;}.e,.f,.h,.i{font-family:MicrosoftYaHeiUI, Microsoft YaHei UI;}.f{font-size:11px;}.g{font-size:20px;}.h,.i{fill:#7f8389;}.h{font-size:9px;}.i{font-size:8px;}.j{stroke:none;}</style><clipPath id="b"><rect width="923" height="950"/></clipPath></defs><g id="a" class="a"><rect class="l" width="923" height="950"/><g transform="translate(260.873 302.615)"><g class="b" transform="translate(0)"><rect class="j" width="270.106" height="66.395" rx="3"/><rect class="k" x="0.5" y="0.5" width="269.106" height="65.395" rx="2.5"/></g><text class="c" transform="translate(135.796 40.617)"><tspan x="-86.236" y="0">热爱vue的小菜鸟 </tspan></text></g><g transform="translate(30 302.615)"><g class="b" transform="translate(0)"><rect class="j" width="194.658" height="66.395" rx="3"/><rect class="k" x="0.5" y="0.5" width="193.658" height="65.395" rx="2.5"/></g><text class="c" transform="translate(97.958 40.617)"><tspan x="-21.126" y="0">小白</tspan></text></g><g transform="translate(300.106 31)"><g class="b" transform="translate(0)"><rect class="j" width="190.131" height="66.395" rx="3"/><rect class="k" x="0.5" y="0.5" width="189.131" height="65.395" rx="2.5"/></g><text class="c" transform="translate(94.814 40.617)"><tspan x="-42.378" y="0">喵与猫寻</tspan></text></g><path class="d" d="M2330.708,59s4.339,70.289-70.289,70.289" transform="translate(-1935.537 38.395)"/><path class="d" d="M70.289,0S74.628,70.289,0,70.289" transform="translate(202.07 237.851) rotate(180)"/><line class="d" y1="64.886" transform="translate(131.856 237.729)"/><line class="d" x1="125.245" transform="translate(199.76 167.562)"/><path class="d" d="M70.289,0S74.628,70.289,0,70.289" transform="translate(466.117 97.371) rotate(90)"/><line class="d" x1="170.514" transform="translate(462.321 167.562)"/><path class="d" d="M73.16,0S77.677,70.289,0,70.289" transform="translate(630.421 240.747) rotate(-90)"/><line class="d" y1="62.622" transform="translate(700.739 240.747)"/><line class="d" x2="0.453" y2="205.22" transform="translate(395.474 98.149)"/><text class="e" transform="translate(280.418 322.16)"><tspan x="-12.072" y="0">主页</tspan></text><g transform="translate(562.668 304.124)"><g class="b" transform="translate(0)"><rect class="j" width="212.765" height="66.395" rx="3"/><rect class="k" x="0.5" y="0.5" width="211.765" height="65.395" rx="2.5"/></g><text class="c" transform="translate(106.886 40.617)"><tspan x="-42.378" y="0">风雨帝侯</tspan></text><text class="e" transform="translate(10.563 19.545)"><tspan x="0" y="0">个人中心</tspan></text></g><text class="f" transform="translate(37.545 321.16)"><tspan x="0" y="0">铲屎官社区</tspan></text><line class="d" y2="487.399" transform="translate(130.347 366.747)"/><path class="d" d="M2118.5,267.251s-.7,33.289,33.289,33.289" transform="translate(-1988.154 314.903)"/><g transform="translate(161.281 581.776)"><g class="b" transform="translate(0 0)"><rect class="j" width="181.077" height="66.395" rx="3"/><rect class="k" x="0.5" y="0.5" width="180.077" height="65.395" rx="2.5"/></g><text class="c" transform="translate(90.413 40.617)"><tspan x="-21.126" y="0">上栏</tspan></text><text class="f" transform="translate(10.563 18.545)"><tspan x="0" y="0">子组件B</tspan></text></g><path class="d" d="M2118.5,267.251s-.7,33.289,33.289,33.289" transform="translate(-1988.154 405.441)"/><g transform="translate(161.281 672.314)"><g class="b" transform="translate(0 0)"><rect class="j" width="181.077" height="66.395" rx="3"/><rect class="k" x="0.5" y="0.5" width="180.077" height="65.395" rx="2.5"/></g><text class="c" transform="translate(90.413 40.617)"><tspan x="-21.126" y="0">帖子</tspan></text><text class="f" transform="translate(10.563 18.545)"><tspan x="0" y="0">子组件B</tspan></text></g><path class="d" d="M2118.5,267.251s-.7,33.289,33.289,33.289" transform="translate(-1988.154 495.98)"/><g transform="translate(161.281 762.852)"><g class="b" transform="translate(0 0)"><rect class="j" width="182.586" height="66.395" rx="3"/><rect class="k" x="0.5" y="0.5" width="181.586" height="65.395" rx="2.5"/></g><text class="g" transform="translate(90.359 39.617)"><tspan x="-30.24" y="0">时间轴</tspan></text><text class="f" transform="translate(10.563 18.545)"><tspan x="0" y="0">父组件B</tspan></text></g><path class="d" d="M2118.5,267.251s-.7,33.289,33.289,33.289" transform="translate(-1988.154 586.518)"/><g transform="translate(161.281 853.391)"><g class="b" transform="translate(0 0)"><rect class="j" width="182.586" height="66.395" rx="3"/><rect class="k" x="0.5" y="0.5" width="181.586" height="65.395" rx="2.5"/></g><text class="g" transform="translate(89.233 39.617)"><tspan x="-50.48" y="0">用户时间轴</tspan></text><text class="f" transform="translate(10.563 18.545)"><tspan x="0" y="0">页面B</tspan></text></g><path class="d" d="M2118.5,267.251s-.7,33.289,33.289,33.289" transform="translate(-1988.154 135.335)"/><g transform="translate(161.281 402.208)"><g class="b" transform="translate(0)"><rect class="j" width="181.077" height="66.395" rx="3"/><rect class="k" x="0.5" y="0.5" width="180.077" height="65.395" rx="2.5"/></g><text class="c" transform="translate(90.413 40.617)"><tspan x="-21.126" y="0">卡片</tspan></text><text class="e" transform="translate(10.563 19.545)"><tspan x="0" y="0">组件A</tspan></text></g><path class="d" d="M2118.5,267.251s-.7,33.289,33.289,33.289" transform="translate(-1988.154 225.874)"/><g transform="translate(161.281 492.746)"><g class="b" transform="translate(0 0)"><rect class="j" width="181.077" height="66.395" rx="3"/><rect class="k" x="0.5" y="0.5" width="180.077" height="65.395" rx="2.5"/></g><text class="g" transform="translate(87.724 39.617)"><tspan x="-50.48" y="0">铲屎官社区</tspan></text><text class="e" transform="translate(10.563 19.545)"><tspan x="0" y="0">页面A</tspan></text></g><text class="h" transform="translate(248.801 551.542)"><tspan x="0" y="0">/pages/community</tspan></text><text class="h" transform="translate(250.31 462.513)"><tspan x="0" y="0">/components/card</tspan></text><text class="h" transform="translate(332.514 642.081)"><tspan x="-131.911" y="0">/components/timeline/topbar</tspan></text><text class="h" transform="translate(333.077 732.619)"><tspan x="-121.701" y="0">/components/timeline/post</tspan></text><text class="h" transform="translate(331.711 824.666)"><tspan x="-98.327" y="0">/components/timeline</tspan></text><text class="h" transform="translate(329.364 907.66)"><tspan x="-69.684" y="0">/pages/timeline</tspan></text><line class="d" y2="392.333" transform="translate(395.926 369.765)"/><g transform="translate(395.925 405.226)"><path class="d" d="M2118.5,267.251s-.7,33.289,33.289,33.289" transform="translate(-2118.499 -266.872)"/><g transform="translate(30.935)"><g class="b"><rect class="j" width="181.077" height="66.395" rx="3"/><rect class="k" x="0.5" y="0.5" width="180.077" height="65.395" rx="2.5"/></g><text class="c" transform="translate(90.287 40.617)"><tspan x="-42.378" y="0">气泡卡片</tspan></text><text class="e" transform="translate(10.563 19.545)"><tspan x="0" y="0">子组件C</tspan></text><text class="h" transform="translate(175.814 58.796)"><tspan x="-123.129" y="0">/components/map/popover</tspan></text></g></g><g transform="translate(395.925 494.255)"><path class="d" d="M2118.5,267.251s-.7,33.289,33.289,33.289" transform="translate(-2118.499 -266.872)"/><g transform="translate(30.935)"><g class="b"><rect class="j" width="181.077" height="66.395" rx="3"/><rect class="k" x="0.5" y="0.5" width="180.077" height="65.395" rx="2.5"/></g><text class="c" transform="translate(90.413 40.617)"><tspan x="-21.126" y="0">地图</tspan></text><text class="e" transform="translate(10.563 19.545)"><tspan x="0" y="0">父组件C</tspan></text><text class="h" transform="translate(175.556 58.796)"><tspan x="-82.213" y="0">/components/map</tspan></text></g></g><g transform="translate(395.925 583.284)"><path class="d" d="M2118.5,267.251s-.7,33.289,33.289,33.289" transform="translate(-2118.499 -266.872)"/><g transform="translate(30.935 0)"><g class="b"><rect class="j" width="181.077" height="66.395" rx="3"/><rect class="k" x="0.5" y="0.5" width="180.077" height="65.395" rx="2.5"/></g><text class="c" transform="translate(90.413 40.617)"><tspan x="-21.126" y="0">主页</tspan></text><text class="e" transform="translate(10.563 19.545)"><tspan x="0" y="0">页面C</tspan></text><text class="h" transform="translate(175.191 58.796)"><tspan x="-59.325" y="0">/pages/home</tspan></text></g></g><g transform="translate(395.925 672.314)"><path class="d" d="M2118.5,267.251s-.7,33.289,33.289,33.289" transform="translate(-2118.499 -266.872)"/><g transform="translate(30.935 0)"><g class="b"><rect class="j" width="181.077" height="66.395" rx="3"/><rect class="k" x="0.5" y="0.5" width="180.077" height="65.395" rx="2.5"/></g><text class="g" transform="translate(88.85 39.617)"><tspan x="-30.24" y="0">添加猫</tspan></text><text class="e" transform="translate(10.563 19.545)"><tspan x="0" y="0">页面D</tspan></text><text class="i" transform="translate(169.646 57.796)"><tspan x="-60.463" y="0">/pages/cat/add</tspan></text></g></g><g transform="translate(395.925 761.343)"><path class="d" d="M2118.5,267.251s-.7,33.289,33.289,33.289" transform="translate(-2118.499 -266.872)"/><g transform="translate(32.444 0)"><g class="b"><rect class="j" width="181.077" height="66.395" rx="3"/><rect class="k" x="0.5" y="0.5" width="180.077" height="65.395" rx="2.5"/></g><text class="g" transform="translate(88.85 39.617)"><tspan x="-30.24" y="0">猫信息</tspan></text><text class="e" transform="translate(10.563 19.545)"><tspan x="0" y="0">页面E</tspan></text><text class="i" transform="translate(168.628 57.796)"><tspan x="-63.086" y="0">/pages/cat/view</tspan></text></g></g><line class="d" y2="392.333" transform="translate(681.122 371.274)"/><g transform="translate(681.121 495.764)"><path class="d" d="M2118.5,267.251s-.7,33.289,33.289,33.289" transform="translate(-2118.499 -266.872)"/><g transform="translate(30.935)"><g class="b"><rect class="j" width="181.077" height="66.395" rx="3"/><rect class="k" x="0.5" y="0.5" width="180.077" height="65.395" rx="2.5"/></g><text class="c" transform="translate(90.287 40.617)"><tspan x="-42.378" y="0">个人中心</tspan></text><text class="f" transform="translate(10.563 18.545)"><tspan x="0" y="0">页面F</tspan></text><text class="h" transform="translate(176.173 58.796)"><tspan x="-62.769" y="0">/pages/profile</tspan></text></g></g><g transform="translate(681.121 584.793)"><path class="d" d="M2118.5,267.251s-.7,33.289,33.289,33.289" transform="translate(-2118.499 -266.872)"/><g transform="translate(30.935)"><g class="b"><rect class="j" width="181.077" height="66.395" rx="3"/><rect class="k" x="0.5" y="0.5" width="180.077" height="65.395" rx="2.5"/></g><text class="c" transform="translate(90.413 40.617)"><tspan x="-21.126" y="0">设置</tspan></text><text class="e" transform="translate(10.563 19.545)"><tspan x="0" y="0">页面G</tspan></text><text class="h" transform="translate(175.94 58.796)"><tspan x="-101.429" y="0">/pages/profile/settings</tspan></text></g></g><g transform="translate(681.121 673.823)"><path class="d" d="M2118.5,267.251s-.7,33.289,33.289,33.289" transform="translate(-2118.499 -266.872)"/><g transform="translate(30.935 0)"><g class="b"><rect class="j" width="181.077" height="66.395" rx="3"/><rect class="k" x="0.5" y="0.5" width="180.077" height="65.395" rx="2.5"/></g><text class="c" transform="translate(90.287 40.617)"><tspan x="-42.378" y="0">消息通知</tspan></text><text class="f" transform="translate(10.563 18.545)"><tspan x="0" y="0">页面H</tspan></text><text class="h" transform="translate(175.323 58.796)"><tspan x="-121.327" y="0">/pages/profile/notifications</tspan></text></g></g><g transform="translate(681.121 762.852)"><path class="d" d="M2118.5,267.251s-.7,33.289,33.289,33.289" transform="translate(-2118.499 -266.872)"/><g transform="translate(30.935 0)"><g class="b"><rect class="j" width="181.077" height="66.395" rx="3"/><rect class="k" x="0.5" y="0.5" width="180.077" height="65.395" rx="2.5"/></g><text class="c" transform="translate(90.413 40.617)"><tspan x="-21.126" y="0">须知</tspan></text><text class="e" transform="translate(10.563 19.545)"><tspan x="0" y="0">页面G</tspan></text><text class="h" transform="translate(174.958 58.796)"><tspan x="-98.28" y="0">/pages/profile/notices</tspan></text></g></g><g transform="translate(681.121 406.734)"><path class="d" d="M2118.5,267.251s-.7,33.289,33.289,33.289" transform="translate(-2118.499 -266.872)"/><g transform="translate(30.935)"><g class="b"><rect class="j" width="181.077" height="66.395" rx="3"/><rect class="k" x="0.5" y="0.5" width="180.077" height="65.395" rx="2.5"/></g><text class="g" transform="translate(88.85 39.617)"><tspan x="-30.24" y="0">导航栏</tspan></text><text class="e" transform="translate(10.563 19.545)"><tspan x="0" y="0">组件D</tspan></text><text class="h" transform="translate(174.886 58.796)"><tspan x="-110.195" y="0">/components/bottombar</tspan></text></g></g></g></svg>