<svg xmlns="http://www.w3.org/2000/svg" xmlns:xlink="http://www.w3.org/1999/xlink" viewBox="0 0 1047 844"><defs><style>.a,.e{fill:rgba(0,124,255,0.2);}.a{stroke:#007aff;}.b,.k,.l,.o,.p,.q,.r,.s{fill:#fff;}.b{stroke:#707070;}.ae,.c,.i{fill:#cd9057;}.c,.d{stroke:#929292;stroke-miterlimit:10;}.aa,.c,.d{stroke-width:0.5px;}.d{fill:rgba(146,146,146,0.2);}.f{clip-path:url(#q);}.ak,.ar,.as,.g,.x,.y{fill:#263238;}.g{font-size:25px;font-family:MicrosoftYaHeiUI-Bold, Microsoft YaHei UI;font-weight:700;}.ae,.ag,.ak,.ar,.as,.g,.v,.w,.x,.y{letter-spacing:0.012em;}.h{fill:#efeff4;}.j{clip-path:url(#c);}.l,.t{font-size:17px;letter-spacing:-0.014em;}.al,.ar,.l{font-family:MicrosoftJhengHeiUIBold, Microsoft JhengHei UI;}.ak,.as,.m{font-family:YuGothicUI-Semibold, Yu Gothic UI;}.ak,.aq,.as,.m,.s{font-weight:600;}.aa,.ac,.n{fill:none;}.n,.o,.r{fill-rule:evenodd;}.p{opacity:0;}.as,.q,.s,.v{font-size:12px;}.ao,.q,.y{font-family:SegoeUI, Segoe UI;}.r{opacity:0.4;}.am,.aq,.s{font-family:SegoeUI-Semibold, Segoe UI;}.ae,.an,.t,.v,.w,.x,.z{font-family:YuGothicUI-Regular, Yu Gothic UI;}.u{clip-path:url(#d);}.ag,.ai,.v{fill:#7f8389;}.w{stroke:#000;stroke-width:0.3px;}.w,.x,.y{font-size:16px;}.aa,.ac{stroke:#e0e0e0;}.ab,.ag{font-family:MicrosoftJhengHeiUIRegular, Microsoft JhengHei UI;}.ad{fill:rgba(255,255,255,0);}.ae,.ag{font-size:10px;}.af{clip-path:url(#g);}.ah{clip-path:url(#h);}.aj{clip-path:url(#i);}.ak{font-size:14px;}.al,.an{font-weight:400;}.ap{font-family:SegoeUI-Semilight, Segoe UI;font-weight:300;}.ar{font-size:20px;}.at{filter:url(#j);}.au{filter:url(#e);}.av{filter:url(#a);}</style><filter id="a" x="43" y="47" width="465" height="757" filterUnits="userSpaceOnUse"><feOffset dy="3" input="SourceAlpha"/><feGaussianBlur stdDeviation="15" result="b"/><feFlood flood-opacity="0.161"/><feComposite operator="in" in2="b"/><feComposite in="SourceGraphic"/></filter><clipPath id="c"><rect class="a" width="22" height="22" transform="translate(337 31)"/></clipPath><clipPath id="d"><rect class="b" width="15" height="15" transform="translate(16 358)"/></clipPath><filter id="e" x="417" y="313.5" width="40" height="40" filterUnits="userSpaceOnUse"><feOffset dy="3" input="SourceAlpha"/><feGaussianBlur stdDeviation="3" result="f"/><feFlood flood-opacity="0.161"/><feComposite operator="in" in2="f"/><feComposite in="SourceGraphic"/></filter><clipPath id="g"><rect class="c" width="25" height="25" transform="translate(50 7)"/></clipPath><clipPath id="h"><rect class="d" width="25" height="25" transform="translate(50 7)"/></clipPath><clipPath id="i"><rect class="e" width="25" height="25" transform="translate(50 7)"/></clipPath><filter id="j" x="539" y="47" width="465" height="757" filterUnits="userSpaceOnUse"><feOffset dy="3" input="SourceAlpha"/><feGaussianBlur stdDeviation="15" result="k"/><feFlood flood-opacity="0.161"/><feComposite operator="in" in2="k"/><feComposite in="SourceGraphic"/></filter><clipPath id="q"><rect width="1047" height="844"/></clipPath></defs><g id="p" class="f"><rect class="k" width="1047" height="844"/><text class="g" transform="translate(36 48)"><tspan x="0" y="0">设置 &amp; 须知</tspan></text><g class="av" transform="matrix(1, 0, 0, 1, 0, 0)"><rect class="h" width="375" height="667" transform="translate(88 89)"/></g><rect class="i" width="375" height="63" transform="translate(88 89)"/><g transform="translate(88 89)"><g class="j"><g transform="translate(337 31)"><path class="k" d="M2.75,8.25A2.75,2.75,0,1,0,5.5,11,2.758,2.758,0,0,0,2.75,8.25Zm16.5,0A2.75,2.75,0,1,0,22,11,2.758,2.758,0,0,0,19.25,8.25ZM11,8.25A2.75,2.75,0,1,0,13.75,11,2.758,2.758,0,0,0,11,8.25Z"/></g></g><text class="l" transform="translate(187.523 48)"><tspan x="-33.64" y="0">喵</tspan><tspan class="m" y="0">与猫</tspan><tspan y="0">寻</tspan></text><g transform="translate(5 31)"><path class="n" d="M0,0H22V22H0Z"/><path class="o" d="M8.621,11l8.439-8.439L14.939.44l-9.5,9.5L4.379,11l1.061,1.061,9.5,9.5,2.121-2.121Z"/></g></g><g transform="translate(88 49)"><rect class="p" width="375" height="20" transform="translate(0 40)"/><text class="q" transform="translate(311.854 54.5)"><tspan x="0" y="0">100%</tspan></text><path class="o" d="M345.5,13.008A1.5,1.5,0,0,0,347,14.5H365.5a1.5,1.5,0,0,0,1.5-1.492V7.492A1.5,1.5,0,0,0,365.5,6H347a1.5,1.5,0,0,0-1.5,1.492ZM347,5.5H365.5a2,2,0,0,1,2,1.992v5.517a2,2,0,0,1-2,1.992H347a2,2,0,0,1-2-1.992V7.492A2,2,0,0,1,347,5.5Zm-1,2a1,1,0,0,1,1-1H365.5a1,1,0,0,1,1,1V13a1,1,0,0,1-1,1H347a1,1,0,0,1-1-1Zm22,1h.75a.748.748,0,0,1,.75.742v2.015a.744.744,0,0,1-.75.742H368Z" transform="translate(0 40)"/><path class="r" d="M304.96,7.136,300.761,3H300.5V8.7l-2.689-2.985L297,6.58,300.429,10,297,13.421l.811.86L300.5,11.3V17h.343L305,12.853,302.146,10ZM301.5,8.7V5.593l1.773,1.556Zm0,2.593,1.794,1.556L301.5,14.407Z" transform="translate(0 40)"/><path class="o" d="M94.915,11.473a3.242,3.242,0,0,0-2.046.773L94.915,14.5l2.048-2.252A3.242,3.242,0,0,0,94.915,11.473ZM95,7.014a7.735,7.735,0,0,1,5.063,1.878L101,7.857A8.825,8.825,0,0,0,89,7.85l.939,1.036A7.734,7.734,0,0,1,95,7.014ZM94.969,10a4.705,4.705,0,0,1,3.044,1.112l1-1.095a6.1,6.1,0,0,0-8.074,0l.994,1.1A4.7,4.7,0,0,1,94.969,10Z" transform="translate(-24 40)"/><text class="q" transform="translate(44 54.5)"><tspan x="0" y="0">Tex</tspan></text><text class="s" transform="translate(164 55)"><tspan x="0" y="0">3:33 PM</tspan></text><path class="o" d="M39.5,10.25a2.25,2.25,0,1,0-2.25,2.25A2.25,2.25,0,0,0,39.5,10.25Zm-5,0A2.75,2.75,0,1,1,37.25,13,2.75,2.75,0,0,1,34.5,10.25ZM30.25,13a2.75,2.75,0,1,0-2.75-2.75A2.75,2.75,0,0,0,30.25,13Zm-7,0a2.75,2.75,0,1,0-2.75-2.75A2.75,2.75,0,0,0,23.25,13Zm-7,0a2.75,2.75,0,1,0-2.75-2.75A2.75,2.75,0,0,0,16.25,13Zm-7,0A2.75,2.75,0,1,0,6.5,10.25,2.75,2.75,0,0,0,9.25,13Z" transform="translate(0 40)"/></g><rect class="k" width="375" height="44" transform="translate(88 186)"/><rect class="k" width="375" height="44" transform="translate(88 308)"/><text class="t" transform="translate(143 337)"><tspan x="0" y="0">消息通知</tspan></text><g class="u" transform="translate(88 -35)"><path d="M14.41,11.271c-1.348-1.166-2.6-2.811-2.6-6.919a4.314,4.314,0,0,0-8.629,0c0,4.111-1.247,5.755-2.6,6.92A1.708,1.708,0,0,0,0,12.559a.491.491,0,0,0,.491.491H5.148a2.4,2.4,0,0,0,4.7,0h4.657A.491.491,0,0,0,15,12.559,1.7,1.7,0,0,0,14.41,11.271ZM7.5,13.981a1.423,1.423,0,0,1-1.334-.931H8.834A1.423,1.423,0,0,1,7.5,13.981ZM1.175,12.068a.722.722,0,0,1,.057-.055c2.057-1.776,2.935-4.068,2.935-7.661a3.333,3.333,0,0,1,6.666,0c0,3.591.878,5.882,2.936,7.662a.729.729,0,0,1,.057.055Z" transform="translate(16 358)"/></g><text class="v" transform="translate(104 173)"><tspan x="0" y="0">个人信息</tspan></text><text class="w" transform="translate(120 215)"><tspan x="-16.096" y="0">名字</tspan></text><text class="x" transform="translate(163 215)"><tspan x="0" y="0">阳叔</tspan></text><rect class="k" width="375" height="44" transform="translate(88 229)"/><text class="w" transform="translate(120 258)"><tspan x="-16.096" y="0">生日</tspan></text><text class="y" transform="translate(163 258)"><tspan x="0" y="0">1997</tspan><tspan class="z" y="0">年</tspan><tspan y="0">12</tspan><tspan class="z" y="0">月</tspan><tspan y="0">1</tspan><tspan class="z" y="0">日</tspan></text><line class="aa" x2="342" transform="translate(103.5 229.5)"/><text class="v" transform="translate(104 295)"><tspan x="0" y="0">基本</tspan><tspan class="ab" y="0">设</tspan><tspan y="0">置</tspan></text><rect class="i" width="41" height="25" rx="12.5" transform="translate(409 318)"/><g class="au" transform="matrix(1, 0, 0, 1, 0, 0)"><circle class="k" cx="11" cy="11" r="11" transform="translate(426 319.5)"/></g><path class="ac" d="M0,0H375" transform="translate(88.5 707.5)"/><g transform="translate(88 89)"><path class="k" d="M0,0H375V49H0Z" transform="translate(0 618)"/><g transform="translate(250 618)"><rect class="ad" width="125" height="49"/><text class="ae" transform="translate(0 35)"><tspan x="42.32" y="11">个人中心</tspan></text><g class="af"><g transform="translate(50 7)"><path class="i" d="M21.339,16.161a12.452,12.452,0,0,0-4.75-2.979,7.227,7.227,0,1,0-8.178,0A12.52,12.52,0,0,0,0,25H1.953a10.547,10.547,0,0,1,21.094,0H25A12.419,12.419,0,0,0,21.339,16.161ZM12.5,12.5a5.273,5.273,0,1,1,5.273-5.273A5.279,5.279,0,0,1,12.5,12.5Z"/></g></g></g><g transform="translate(125 618)"><rect class="ad" width="125" height="49"/><text class="ag" transform="translate(0 35)"><tspan x="37.26" y="11">铲</tspan><tspan class="z" y="11">屎官社区</tspan></text><g class="ah"><g transform="translate(50 7)"><path class="ai" d="M12.5,9.076a7.16,7.16,0,1,0,7.16,7.16A7.168,7.168,0,0,0,12.5,9.076Zm0,12.552a5.392,5.392,0,1,1,5.392-5.392A5.4,5.4,0,0,1,12.5,21.628Z"/><path class="ai" d="M8.686,8.5A3.447,3.447,0,1,0,5.238,5.051,3.451,3.451,0,0,0,8.686,8.5Zm0-5.126A1.679,1.679,0,1,1,7.007,5.051,1.681,1.681,0,0,1,8.686,3.372Z"/><path class="ai" d="M16.315,8.5a3.447,3.447,0,1,0-3.447-3.447A3.451,3.451,0,0,0,16.315,8.5Zm0-5.126a1.679,1.679,0,1,1-1.679,1.679A1.681,1.681,0,0,1,16.315,3.372Z"/><path class="ai" d="M6.382,10.375a3.191,3.191,0,1,0-3.191,3.191A3.194,3.194,0,0,0,6.382,10.375ZM3.191,11.8a1.422,1.422,0,1,1,1.422-1.422A1.424,1.424,0,0,1,3.191,11.8Z"/><path class="ai" d="M21.809,7.184A3.191,3.191,0,1,0,25,10.375,3.194,3.194,0,0,0,21.809,7.184Zm0,4.613a1.422,1.422,0,1,1,1.423-1.422A1.424,1.424,0,0,1,21.809,11.8Z"/></g></g></g><g transform="translate(0 618)"><rect class="ad" width="125" height="49"/><text class="ag" transform="translate(0 35)"><tspan x="47.38" y="11">寻</tspan><tspan class="z" y="11">找猫</tspan></text><g class="aj"><g transform="translate(50 7)"><path class="ai" d="M.864,14.629H2.9v8.145a.875.875,0,0,0,.873.873H9.736a.875.875,0,0,0,.873-.873V16.811h3.636v5.964a.875.875,0,0,0,.873.873h5.673a.875.875,0,0,0,.873-.873V14.629h2.473a.869.869,0,0,0,.611-1.484L13.372,1.611A.869.869,0,0,0,12.151,1.6L.267,13.131a.873.873,0,0,0-.2.96A.851.851,0,0,0,.864,14.629ZM12.732,3.458l9.309,9.425H20.79a.875.875,0,0,0-.873.873V21.9H15.991V15.938a.875.875,0,0,0-.873-.873H9.736a.875.875,0,0,0-.873.873V21.9H4.645V13.756a.875.875,0,0,0-.873-.873H3.016Z"/></g></g></g></g><g class="at" transform="matrix(1, 0, 0, 1, 0, 0)"><rect class="k" width="375" height="667" transform="translate(584 89)"/></g><text class="ak" transform="translate(608 221)"><tspan x="0" y="15">健康</tspan><tspan class="al" y="15">检查</tspan><tspan class="am" y="15"></tspan><tspan class="an"><tspan x="0" y="34">在接一只猫咪回来之前，要先确</tspan><tspan class="ab" y="34">认</tspan><tspan y="34">下猫咪是否健</tspan><tspan x="0" y="53">康，是否做了</tspan><tspan class="ab" y="53">驱</tspan><tspan y="53">虫。</tspan><tspan class="ao" y="53"></tspan></tspan><tspan class="ap"><tspan x="0" y="72"></tspan></tspan><tspan class="al"><tspan x="0" y="91">选</tspan><tspan class="m" y="91">用合适的接猫工具</tspan><tspan class="aq" y="91"></tspan></tspan><tspan class="an"><tspan x="0" y="110">可以</tspan><tspan class="ab" y="110">选择</tspan><tspan y="110">适当大小的</tspan><tspan class="ab" y="110">宠</tspan><tspan y="110">物航空箱或者小</tspan><tspan class="ab" y="110">铁笼</tspan><tspan y="110">（外面</tspan><tspan x="0" y="129">罩上透空气的布罩防止猫被陌生</tspan><tspan class="ab" y="129">环</tspan><tspan y="129">境吓到）。</tspan><tspan class="ab" y="129">对</tspan><tspan y="129">于</tspan><tspan x="0" y="148">大猫尽量不要用</tspan><tspan class="ab" y="148">纸</tspan><tspan y="148">箱以防受惊半途逃走。</tspan><tspan class="ao" y="148"></tspan></tspan><tspan class="ap"><tspan x="0" y="167"></tspan></tspan><tspan class="al"><tspan x="0" y="186">给</tspan><tspan class="m" y="186">猫一个安静自由的</tspan><tspan y="186">环</tspan><tspan class="m" y="186">境</tspan><tspan class="aq" y="186"></tspan></tspan><tspan class="an"><tspan x="0" y="205">猫咪到家后不要急着去</tspan><tspan class="ab" y="205">拥</tspan><tspan y="205">抱它或者</tspan><tspan class="ab" y="205">亲</tspan><tspan y="205">它。有小孩子</tspan><tspan x="0" y="224">的家庭尤其要注意，先不</tspan><tspan class="ab" y="224">让</tspan><tspan y="224">孩子去逗猫咪，猫咪是</tspan><tspan x="0" y="243">出了名的敏感和慢</tspan><tspan class="ab" y="243">热</tspan><tspan y="243">的</tspan><tspan class="ab" y="243">动</tspan><tspan y="243">物，</tspan><tspan class="ab" y="243">为</tspan><tspan y="243">了防止猫咪受惊，</tspan><tspan x="0" y="262">尽量</tspan><tspan class="ab" y="262">给</tspan><tspan y="262">它一个</tspan><tspan class="ab" y="262">时间</tspan><tspan y="262">去熟悉新</tspan><tspan class="ab" y="262">环</tspan><tspan y="262">境。建</tspan><tspan class="ab" y="262">议</tspan><tspan y="262">先把小猫放</tspan><tspan x="0" y="281">在一个房</tspan><tspan class="ab" y="281">间</tspan><tspan y="281">里不去打</tspan><tspan class="ab" y="281">扰</tspan><tspan y="281">它。</tspan><tspan class="ao" y="281">4.</tspan><tspan y="281">做好保</tspan><tspan class="ab" y="281">护</tspan><tspan y="281">工作。小猫和</tspan><tspan x="0" y="300">小孩子一</tspan><tspan class="ab" y="300">样</tspan><tspan y="300">，喜</tspan><tspan class="ab" y="300">欢蹦蹦</tspan><tspan y="300">跳跳，蹭来蹭去。所以收起</tspan><tspan x="0" y="319">家中刀具，玻璃制品等易碎的</tspan><tspan class="ab" y="319">东</tspan><tspan y="319">西，以及一切猫不</tspan><tspan x="0" y="338">能碰的</tspan><tspan class="ab" y="338">东</tspan><tspan y="338">西：巧克力，咖啡，百合花，各种</tspan><tspan class="ab" y="338">药</tspan><tspan y="338">品，</tspan><tspan x="0" y="357">各种家庭用酸性碱性清洁</tspan><tspan class="ab" y="357">剂</tspan><tspan y="357">（以防舔食），樟</tspan><tspan class="ab" y="357">脑</tspan><tspan x="0" y="376">丸，</tspan><tspan class="ab" y="376">杀</tspan><tspan y="376">虫</tspan><tspan class="ab" y="376">剂</tspan><tspan y="376">，家具用亮光漆。</tspan><tspan class="ao" y="376"></tspan></tspan><tspan class="ap"><tspan x="0" y="395"></tspan></tspan><tspan x="0" y="414">做好封窗</tspan><tspan class="am" y="414"></tspan><tspan class="an"><tspan x="0" y="433">有条件的家庭可以</tspan><tspan class="ab" y="433">购买铁丝</tspan><tspan y="433">制的</tspan><tspan class="ab" y="433">纱</tspan><tspan y="433">窗。因</tspan><tspan class="ab" y="433">为</tspan><tspan y="433">猫咪喜</tspan><tspan class="ab" x="0" y="452">欢</tspan><tspan y="452">看窗外，所以要防止猫咪因</tspan><tspan class="ab" y="452">为</tspan><tspan y="452">在窗</tspan><tspan class="ab" y="452">户</tspan><tspan y="452">上玩而不小</tspan><tspan x="0" y="471">心打开窗</tspan><tspan class="ab" y="471">户</tspan><tspan y="471">掉下去（高</tspan><tspan class="ab" y="471">层</tspan><tspan y="471">住</tspan><tspan class="ab" y="471">户</tspan><tspan y="471">）或者溜出去的情况</tspan><tspan x="0" y="490">（一楼住</tspan><tspan class="ab" y="490">户</tspan><tspan y="490">）。</tspan><tspan class="ab" y="490">还</tspan><tspan y="490">有一个小技巧，每次打开窗</tspan><tspan class="ab" y="490">户</tspan><tspan y="490">的</tspan></tspan></text><rect class="i" width="375" height="63" transform="translate(584 89)"/><g transform="translate(584 49)"><rect class="p" width="375" height="20" transform="translate(0 40)"/><text class="q" transform="translate(311.854 54.5)"><tspan x="0" y="0">100%</tspan></text><path class="o" d="M345.5,13.008A1.5,1.5,0,0,0,347,14.5H365.5a1.5,1.5,0,0,0,1.5-1.492V7.492A1.5,1.5,0,0,0,365.5,6H347a1.5,1.5,0,0,0-1.5,1.492ZM347,5.5H365.5a2,2,0,0,1,2,1.992v5.517a2,2,0,0,1-2,1.992H347a2,2,0,0,1-2-1.992V7.492A2,2,0,0,1,347,5.5Zm-1,2a1,1,0,0,1,1-1H365.5a1,1,0,0,1,1,1V13a1,1,0,0,1-1,1H347a1,1,0,0,1-1-1Zm22,1h.75a.748.748,0,0,1,.75.742v2.015a.744.744,0,0,1-.75.742H368Z" transform="translate(0 40)"/><path class="r" d="M304.96,7.136,300.761,3H300.5V8.7l-2.689-2.985L297,6.58,300.429,10,297,13.421l.811.86L300.5,11.3V17h.343L305,12.853,302.146,10ZM301.5,8.7V5.593l1.773,1.556Zm0,2.593,1.794,1.556L301.5,14.407Z" transform="translate(0 40)"/><path class="o" d="M94.915,11.473a3.242,3.242,0,0,0-2.046.773L94.915,14.5l2.048-2.252A3.242,3.242,0,0,0,94.915,11.473ZM95,7.014a7.735,7.735,0,0,1,5.063,1.878L101,7.857A8.825,8.825,0,0,0,89,7.85l.939,1.036A7.734,7.734,0,0,1,95,7.014ZM94.969,10a4.705,4.705,0,0,1,3.044,1.112l1-1.095a6.1,6.1,0,0,0-8.074,0l.994,1.1A4.7,4.7,0,0,1,94.969,10Z" transform="translate(-24 40)"/><text class="q" transform="translate(44 54.5)"><tspan x="0" y="0">Tex</tspan></text><text class="s" transform="translate(164 55)"><tspan x="0" y="0">3:33 PM</tspan></text><path class="o" d="M39.5,10.25a2.25,2.25,0,1,0-2.25,2.25A2.25,2.25,0,0,0,39.5,10.25Zm-5,0A2.75,2.75,0,1,1,37.25,13,2.75,2.75,0,0,1,34.5,10.25ZM30.25,13a2.75,2.75,0,1,0-2.75-2.75A2.75,2.75,0,0,0,30.25,13Zm-7,0a2.75,2.75,0,1,0-2.75-2.75A2.75,2.75,0,0,0,23.25,13Zm-7,0a2.75,2.75,0,1,0-2.75-2.75A2.75,2.75,0,0,0,16.25,13Zm-7,0A2.75,2.75,0,1,0,6.5,10.25,2.75,2.75,0,0,0,9.25,13Z" transform="translate(0 40)"/></g><text class="ar" transform="translate(608 195)"><tspan x="0" y="0">领</tspan><tspan class="m" y="0">养</tspan><tspan y="0">须</tspan><tspan class="m" y="0">知</tspan></text><text class="as" transform="translate(608 212)"><tspan x="0" y="0">接猫篇</tspan></text><path class="ac" d="M0,0H375" transform="translate(584.5 707.5)"/><g transform="translate(584 89)"><path class="k" d="M0,0H375V49H0Z" transform="translate(0 618)"/><g transform="translate(250 618)"><rect class="ad" width="125" height="49"/><text class="ae" transform="translate(0 35)"><tspan x="42.32" y="11">个人中心</tspan></text><g class="af"><g transform="translate(50 7)"><path class="i" d="M21.339,16.161a12.452,12.452,0,0,0-4.75-2.979,7.227,7.227,0,1,0-8.178,0A12.52,12.52,0,0,0,0,25H1.953a10.547,10.547,0,0,1,21.094,0H25A12.419,12.419,0,0,0,21.339,16.161ZM12.5,12.5a5.273,5.273,0,1,1,5.273-5.273A5.279,5.279,0,0,1,12.5,12.5Z"/></g></g></g><g transform="translate(125 618)"><rect class="ad" width="125" height="49"/><text class="ag" transform="translate(0 35)"><tspan x="37.26" y="11">铲</tspan><tspan class="z" y="11">屎官社区</tspan></text><g class="ah"><g transform="translate(50 7)"><path class="ai" d="M12.5,9.076a7.16,7.16,0,1,0,7.16,7.16A7.168,7.168,0,0,0,12.5,9.076Zm0,12.552a5.392,5.392,0,1,1,5.392-5.392A5.4,5.4,0,0,1,12.5,21.628Z"/><path class="ai" d="M8.686,8.5A3.447,3.447,0,1,0,5.238,5.051,3.451,3.451,0,0,0,8.686,8.5Zm0-5.126A1.679,1.679,0,1,1,7.007,5.051,1.681,1.681,0,0,1,8.686,3.372Z"/><path class="ai" d="M16.315,8.5a3.447,3.447,0,1,0-3.447-3.447A3.451,3.451,0,0,0,16.315,8.5Zm0-5.126a1.679,1.679,0,1,1-1.679,1.679A1.681,1.681,0,0,1,16.315,3.372Z"/><path class="ai" d="M6.382,10.375a3.191,3.191,0,1,0-3.191,3.191A3.194,3.194,0,0,0,6.382,10.375ZM3.191,11.8a1.422,1.422,0,1,1,1.422-1.422A1.424,1.424,0,0,1,3.191,11.8Z"/><path class="ai" d="M21.809,7.184A3.191,3.191,0,1,0,25,10.375,3.194,3.194,0,0,0,21.809,7.184Zm0,4.613a1.422,1.422,0,1,1,1.423-1.422A1.424,1.424,0,0,1,21.809,11.8Z"/></g></g></g><g transform="translate(0 618)"><rect class="ad" width="125" height="49"/><text class="ag" transform="translate(0 35)"><tspan x="47.38" y="11">寻</tspan><tspan class="z" y="11">找猫</tspan></text><g class="aj"><g transform="translate(50 7)"><path class="ai" d="M.864,14.629H2.9v8.145a.875.875,0,0,0,.873.873H9.736a.875.875,0,0,0,.873-.873V16.811h3.636v5.964a.875.875,0,0,0,.873.873h5.673a.875.875,0,0,0,.873-.873V14.629h2.473a.869.869,0,0,0,.611-1.484L13.372,1.611A.869.869,0,0,0,12.151,1.6L.267,13.131a.873.873,0,0,0-.2.96A.851.851,0,0,0,.864,14.629ZM12.732,3.458l9.309,9.425H20.79a.875.875,0,0,0-.873.873V21.9H15.991V15.938a.875.875,0,0,0-.873-.873H9.736a.875.875,0,0,0-.873.873V21.9H4.645V13.756a.875.875,0,0,0-.873-.873H3.016Z"/></g></g></g></g><g transform="translate(584 89)"><g class="j"><g transform="translate(337 31)"><path class="k" d="M2.75,8.25A2.75,2.75,0,1,0,5.5,11,2.758,2.758,0,0,0,2.75,8.25Zm16.5,0A2.75,2.75,0,1,0,22,11,2.758,2.758,0,0,0,19.25,8.25ZM11,8.25A2.75,2.75,0,1,0,13.75,11,2.758,2.758,0,0,0,11,8.25Z"/></g></g><text class="l" transform="translate(187.523 48)"><tspan x="-33.64" y="0">喵</tspan><tspan class="m" y="0">与猫</tspan><tspan y="0">寻</tspan></text><g transform="translate(5 31)"><path class="n" d="M0,0H22V22H0Z"/><path class="o" d="M8.621,11l8.439-8.439L14.939.44l-9.5,9.5L4.379,11l1.061,1.061,9.5,9.5,2.121-2.121Z"/></g></g></g></svg>